# xmcd
# 
# Track frame offsets:
#     150
#     22795
#     45572
#     72045
#     98292
#     114402
#     133302
#     158772
#     180637
# 
# Disc length: 2662
# 
# Revision: 3
# Processed by: cddbd v1.5.2PL0 Copyright (c) Steve Scherf et al.
# Submitted via: fre:ac v1.1beta2
# 
DISCID=640a6409
DTITLE=AC-DC - High Voltage
DYEAR=1976
DGENRE=Hard Rock
TTITLE0=It's A Long Way To The Top (If You Wanna Rock 'N' Roll)
TTITLE1=Rock 'N' Roll Singer
TTITLE2=The Jack
TTITLE3=Live Wire
TTITLE4=T.N.T.
TTITLE5=Can I Sit Next To You Girl
TTITLE6=Little Lover
TTITLE7=She's Got Balls
TTITLE8=High Voltage
EXTD=
EXTT0=
EXTT1=
EXTT2=
EXTT3=
EXTT4=
EXTT5=
EXTT6=
EXTT7=
EXTT8=
PLAYORDER=
